<?xml version="1.0" encoding="UTF-8"?>
<svg width="150px" height="150px" viewBox="0 0 150 150" version="1.1" xmlns="http://www.w3.org/2000/svg" xmlns:xlink="http://www.w3.org/1999/xlink">
    <title>1</title>
    <g id="页面-1" stroke="none" stroke-width="1" fill="none" fill-rule="evenodd">
        <g id="1">
            <circle id="派" fill="#1F232D" cx="75" cy="75" r="75"></circle>
            <g id="编组-22备份-8" transform="translate(36.000000, 43.000000)">
                <path d="M16,0 L77.872933,0 L77.872933,0 L77.872933,16 L0,16 C-1.082166e-15,7.163444 7.163444,1.623249e-15 16,0 Z" id="矩形" fill="#FFFFFF"></path>
                <path d="M77.872933,0 L77.872933,16 L77.872933,16 C68.8186102,16 61.4786313,23.163444 61.4786313,32 C61.4786313,40.836556 68.8186102,48 77.872933,48 L77.872933,64 L77.872933,64 C59.7642874,64 45.0843296,49.673112 45.0843296,32 C45.0843296,14.326888 59.7642874,0 77.872933,0 Z" id="形状结合" fill="#F26E63"></path>
                <path d="M36.8869288,15.9993876 L36.8871788,38.5235267 C36.8871788,52.1287125 25.8579965,63.1578947 12.2528108,63.1578947 L0.204928771,63.1574211 L0.204928771,46.3154211 L7.38965223,46.3157895 C14.0907139,46.3157895 19.5419346,40.9645846 19.7031649,34.3023244 L19.7068362,33.9986055 L19.7068362,16.5277103 C19.7068362,16.3506209 19.703099,16.1744045 19.6956991,15.9991354 L36.8869288,15.9993876 Z" id="形状结合" fill="#FFE300"></path>
            </g>
        </g>
    </g>
</svg>